<svg width="16" height="16" viewBox="0 0 16 16" fill="none" xmlns="http://www.w3.org/2000/svg">
  <!-- Background -->
  <rect width="16" height="16" rx="3" fill="#1e3a5f"/>
  
  <!-- Background pattern -->
  <g opacity="0.1">
    <circle cx="4" cy="4" r="2" fill="#C79639"/>
    <circle cx="12" cy="12" r="3" fill="#C79639"/>
    <circle cx="8" cy="8" r="1" fill="#C79639"/>
  </g>
  
  <!-- Main Logo Container -->
  <g transform="translate(4, 4)">
    <!-- M Letter Design -->
    <path d="M1.25 1.25h1.25l0.625 2.5H2.5l-0.165-0.625H2.085L1.915 3.75H1.25l0.625-2.5zm0.625 0.625l-0.085 0.625h0.165l-0.085-0.625z" fill="#C79639"/>
    <path d="M3.75 1.25h1.25c0.69 0 1.25 0.56 1.25 1.25v1.25c0 0.69-0.56 1.25-1.25 1.25H3.75V1.25zm1.25 1.25v1.25h0.625V2.5H5z" fill="#C79639"/>
    <path d="M6.875 1.25v1.875h-0.625V1.25h-0.625V0.625h1.875v0.625h-0.625z" fill="#C79639"/>
  </g>
  
  <!-- Decorative Elements -->
  <g opacity="0.8">
    <circle cx="2.5" cy="2.5" r="0.25" fill="#C79639"/>
    <circle cx="13.5" cy="2.5" r="0.25" fill="#C79639"/>
    <circle cx="2.5" cy="13.5" r="0.2" fill="#C79639" opacity="0.6"/>
    <circle cx="13.5" cy="13.5" r="0.2" fill="#C79639" opacity="0.6"/>
  </g>
  
  <!-- Gold gradient overlay -->
  <defs>
    <linearGradient id="goldGradient" x1="0%" y1="0%" x2="100%" y2="100%">
      <stop offset="0%" style="stop-color:#C79639;stop-opacity:0.3"/>
      <stop offset="50%" style="stop-color:#A67C2A;stop-opacity:0.2"/>
      <stop offset="100%" style="stop-color:#C79639;stop-opacity:0.1"/>
    </linearGradient>
  </defs>
  
  <rect width="16" height="16" rx="3" fill="url(#goldGradient)" opacity="0.5"/>
</svg>
